<?xml version="1.0" encoding="UTF-8" standalone="no"?>
<svg
   xmlns:dc="http://purl.org/dc/elements/1.1/"
   xmlns:cc="http://creativecommons.org/ns#"
   xmlns:rdf="http://www.w3.org/1999/02/22-rdf-syntax-ns#"
   xmlns:svg="http://www.w3.org/2000/svg"
   xmlns="http://www.w3.org/2000/svg"
   xmlns:sodipodi="http://sodipodi.sourceforge.net/DTD/sodipodi-0.dtd"
   xmlns:inkscape="http://www.inkscape.org/namespaces/inkscape"
   sodipodi:docname="logo.svg"
   inkscape:version="1.0 (4035a4f, 2020-05-01)"
   inkscape:export-ydpi="96"
   inkscape:export-xdpi="96"
   inkscape:export-filename="/Users/xavier/Projects/FlutterProject/thaijana/assets/logo.png"
   id="svg8"
   version="1.1"
   viewBox="0 0 134.90485 131.79671"
   height="131.79671mm"
   width="134.90485mm">
  <defs
     id="defs2" />
  <sodipodi:namedview
     inkscape:window-maximized="0"
     inkscape:window-y="23"
     inkscape:window-x="0"
     inkscape:window-height="810"
     inkscape:window-width="1252"
     fit-margin-bottom="0"
     fit-margin-right="0"
     fit-margin-left="0"
     fit-margin-top="0"
     showgrid="false"
     inkscape:document-rotation="0"
     inkscape:current-layer="layer1"
     inkscape:document-units="mm"
     inkscape:cy="421.19825"
     inkscape:cx="228.73368"
     inkscape:zoom="0.35"
     inkscape:pageshadow="2"
     inkscape:pageopacity="0.0"
     borderopacity="1.0"
     bordercolor="#666666"
     pagecolor="#ffffff"
     id="base" />
  <metadata
     id="metadata5">
    <rdf:RDF>
      <cc:Work
         rdf:about="">
        <dc:format>image/svg+xml</dc:format>
        <dc:type
           rdf:resource="http://purl.org/dc/dcmitype/StillImage" />
        <dc:title></dc:title>
      </cc:Work>
    </rdf:RDF>
  </metadata>
  <g
     transform="translate(-45.314214,-36.724629)"
     id="layer1"
     inkscape:groupmode="layer"
     inkscape:label="Layer 1">
    <path
       id="path40"
       d="m 91.928747,168.49869 c -0.11705,0.11182 -1.34392,-0.20157 -2.72636,-0.69642 -1.38245,-0.49484 -4.29948,-1.78274 -6.4823,-2.86198 -2.18281,-1.07925 -5.3975,-2.91609 -7.14375,-4.08187 -1.74625,-1.16579 -4.18686,-2.93352 -5.42358,-3.9283 -1.23672,-0.99477 -3.561871,-3.11837 -5.166994,-4.7191 -1.605122,-1.60073 -3.728889,-3.92245 -4.719479,-5.15938 -0.99059,-1.23692 -2.755822,-3.67771 -3.922737,-5.42396 -1.166916,-1.74625 -3.058517,-5.08 -4.203557,-7.40833 -1.204415,-2.44906 -2.63474,-5.90608 -3.393572,-8.20208 -0.721424,-2.18282 -1.617832,-5.35355 -1.992018,-7.04607 -0.374186,-1.69253 -0.872161,-4.72863 -1.10661,-6.74688 -0.32188,-2.77089 -0.392764,-5.09505 -0.289448,-9.49039 0.09855,-4.192763 0.294063,-6.740773 0.699005,-9.109893 0.3092,-1.80898 0.856789,-4.45128 1.216867,-5.87177 0.360076,-1.4205 1.140971,-3.98855 1.735321,-5.70678 0.59435,-1.71823 1.953194,-4.91 3.019653,-7.09281 1.066459,-2.18281 2.617721,-5.04006 3.44725,-6.34944 0.829528,-1.30938 2.318499,-3.45251 3.308823,-4.7625 0.990324,-1.31 2.758703,-3.45337 3.929731,-4.76306 1.171027,-1.30969 3.234198,-3.37321 4.584827,-4.585603 1.350628,-1.212394 3.544588,-3.027111 4.875458,-4.032704 1.33088,-1.005593 3.71213,-2.614614 5.29167,-3.575603 1.57954,-0.960988 3.88393,-2.256787 5.12085,-2.879552 1.23693,-0.622766 3.61818,-1.671767 5.29167,-2.331114 1.67349,-0.659347 4.31329,-1.567967 5.86624,-2.019156 1.55293,-0.451189 3.9556,-1.053279 5.33926,-1.337977 1.383663,-0.284698 4.431203,-0.760173 6.772333,-1.056609 2.34112,-0.296437 5.47486,-0.537057 6.96386,-0.534713 1.48899,0.0023 4.55274,0.239741 6.80831,0.527546 2.25557,0.287805 5.3512,0.774471 6.87917,1.081479 1.52797,0.307008 4.14734,0.971925 5.82083,1.477594 1.67349,0.505669 4.3524,1.453708 5.95313,2.106753 1.60073,0.653045 4.22623,1.876269 5.83445,2.718276 1.60823,0.842007 4.10854,2.301437 5.55625,3.243178 1.44772,0.941741 3.87007,2.70056 5.38302,3.908488 1.51294,1.207927 4.01325,3.461327 5.55625,5.007557 1.54299,1.54623 3.61935,3.82336 4.61413,5.06028 0.99478,1.23693 2.7461,3.65696 3.89182,5.37785 1.14572,1.72089 2.80752,4.54974 3.69288,6.28633 0.88537,1.73659 2.12259,4.43624 2.74938,5.99923 0.62679,1.56299 1.50903,4.09196 1.96052,5.61993 0.4515,1.52797 1.11765,4.26641 1.48032,6.08542 0.36268,1.81901 0.78497,4.46345 0.93843,5.87655 0.15345,1.41309 0.27901,4.830043 0.27901,7.593223 0,2.99824 -0.16442,6.28295 -0.40776,8.14636 -0.22427,1.71733 -0.64158,4.2535 -0.92736,5.63595 -0.28578,1.38245 -0.88927,3.7637 -1.34109,5.29167 -0.45182,1.52797 -1.29552,3.96875 -1.8749,5.42396 -0.57937,1.45521 -1.82976,4.1727 -2.77863,6.03888 -0.94888,1.86618 -2.55987,4.66415 -3.57999,6.21771 -1.02012,1.55356 -2.75558,3.95575 -3.85658,5.3382 -1.101,1.38245 -3.31891,3.83064 -4.92869,5.44042 -1.60978,1.60978 -4.05797,3.82908 -5.44042,4.93178 -1.38245,1.10269 -3.82323,2.85673 -5.42396,3.89785 -1.60073,1.04113 -4.3987,2.64962 -6.21771,3.57442 -1.81901,0.92481 -4.07196,1.9911 -5.00655,2.36954 -0.9346,0.37844 -1.73827,0.68807 -1.78594,0.68807 -0.0477,0 -0.0867,-4.74837 -0.0867,-10.55193 v -10.55195 l 6.47197,-13.19441 c 4.64574,-9.47126 6.6219,-13.77828 7.00329,-15.26357 0.29222,-1.13803 0.67244,-3.61401 0.84492,-5.50217 0.24853,-2.7207 0.24539,-3.49914 -0.0152,-3.75168 -0.2591,-0.25115 -1.82333,1.20783 -7.38303,6.88628 -4.58164,4.67948 -7.29812,7.26029 -7.74992,7.36285 -0.46903,0.10646 -1.13311,-0.0638 -2.03864,-0.52265 -0.73865,-0.37431 -2.44968,-1.35055 -3.80229,-2.16942 -1.3526,-0.81888 -3.14774,-1.97063 -3.9892,-2.55945 -1.15435,-0.80778 -1.60473,-0.99578 -1.83466,-0.76585 -0.16761,0.16761 -1.3326,4.62264 -2.58889,9.90007 -1.25628,5.27744 -2.39118,9.59534 -2.522,9.59534 -0.13082,0 -1.7897,-4.10892 -3.68639,-9.13093 -1.89669,-5.02201 -3.5676,-9.31503 -3.71312,-9.54004 -0.14552,-0.22501 -4.37224,-4.07628 -9.39271,-8.55837 -5.020473,-4.48209 -9.233183,-8.29385 -9.361583,-8.47057 -0.15176,-0.20887 0.29976,-1.363733 1.29022,-3.300073 0.83802,-1.63832 1.69144,-3.04314 1.8965,-3.12183 0.20505,-0.0787 1.0532,0.15872 1.88478,0.52757 0.83158,0.36884 2.166803,0.86272 2.967163,1.09749 0.80037,0.23477 2.28865,0.49792 3.30729,0.58478 1.08477,0.0925 2.50979,0.0237 3.43959,-0.16604 0.87312,-0.17817 2.18281,-0.61725 2.91041,-0.97574 0.72761,-0.35849 1.93496,-1.25236 2.683,-1.98636 0.74804,-0.73401 1.68176,-1.99153 2.07493,-2.79448 0.43064,-0.87949 0.72189,-1.92589 0.73257,-2.63193 0.0103,-0.68146 -0.13834,-1.32392 -0.35514,-1.53498 -0.20507,-0.19964 -6.20692,-3.21282 -13.33744,-6.69595 -7.130523,-3.48313 -13.291003,-6.41088 -13.689963,-6.5061 -0.41649,-0.0994 -1.09763,-0.0176 -1.59956,0.19213 -0.48081,0.2009 -1.10039,0.70893 -1.37686,1.12897 -0.27647,0.42003 -3.64147,6.3001 -7.47778,13.06682 -3.83632,6.76672 -7.11191,12.808973 -7.2791,13.427213 -0.21598,0.79865 -0.22503,1.41143 -0.0313,2.11666 0.15,0.54593 5.43243,9.08884 11.73874,18.98426 6.3063,9.89542 11.68338,18.35579 11.94907,18.80083 0.47498,0.79562 0.45903,1.02977 -0.95396,13.9953 -0.79036,7.25238 -1.53279,13.27764 -1.64984,13.38946 z m 43.463793,-49.49944 c 0.35366,0.004 3.91362,-3.01492 9.98802,-8.47068 7.34407,-6.59612 9.43849,-8.61572 9.43849,-9.10126 0,-0.34321 -0.35212,-1.29341 -0.78249,-2.111563 -0.43037,-0.81815 -1.31005,-2.16969 -1.95484,-3.00343 -0.64479,-0.83374 -1.73928,-2.08762 -2.4322,-2.78639 -0.69293,-0.69878 -1.60889,-1.451 -2.03548,-1.6716 -0.64754,-0.33485 -0.85453,-0.34351 -1.25342,-0.0524 -0.26279,0.19177 -4.33097,4.49476 -9.04041,9.562193 -4.70944,5.06743 -8.67651,9.5071 -8.81572,9.86594 -0.19224,0.49553 -0.13223,0.87688 0.24951,1.58574 0.27644,0.51331 1.22233,1.71873 2.10198,2.67872 0.87964,0.95998 2.13658,2.13979 2.7932,2.6218 0.65661,0.48201 1.44112,0.87933 1.74336,0.88294 z m -9.01536,-9.25386 c 0.18558,0 0.57208,-0.20836 0.85888,-0.46302 0.28681,-0.25466 4.37789,-4.74927 9.09129,-9.988023 4.71341,-5.23875 8.96823,-9.98867 9.45516,-10.55537 0.7091,-0.82526 0.85476,-1.18326 0.73172,-1.79843 -0.0845,-0.42243 -0.53074,-1.32799 -0.99167,-2.01234 -0.46093,-0.68435 -1.98309,-2.37813 -3.38257,-3.76394 -1.39948,-1.38581 -3.47496,-3.14198 -4.61218,-3.9026 -1.28737,-0.86105 -2.35248,-1.38295 -2.82236,-1.38295 -0.69123,0 -1.4825,1.00675 -9.40989,11.9724 -4.76036,6.58482 -8.70728,12.166853 -8.77092,12.404513 -0.0636,0.23766 0.0637,0.77901 0.28291,1.20298 0.21925,0.42398 1.63032,1.9572 3.13572,3.40716 1.5054,1.44996 3.49295,3.14104 4.41679,3.75796 0.92384,0.61691 1.83155,1.12166 2.01712,1.12166 z m -8.60226,-14.860773 c 0.14417,-0.0485 3.71604,-5.12806 7.9375,-11.28791 5.01319,-7.31511 7.67538,-11.42865 7.67538,-11.85974 0,-0.44069 -0.49577,-1.1798 -1.49182,-2.22405 -0.8205,-0.86022 -2.51714,-2.26002 -3.77031,-3.11067 -1.25317,-0.85066 -2.93333,-1.91082 -3.7337,-2.35593 -0.80036,-0.4451 -2.1944,-1.07467 -3.09786,-1.39904 -0.93667,-0.3363 -1.91019,-0.52263 -2.26515,-0.43354 -0.47834,0.12006 -1.80266,2.11961 -5.71827,8.63386 -2.80268,4.6627 -5.05698,8.67907 -5.00956,8.92529 0.0486,0.25237 1.06669,0.95748 2.33384,1.61636 1.23619,0.6428 3.36877,1.77919 4.73906,2.52532 1.61675,0.88033 2.6614,1.63531 2.97557,2.15048 0.26628,0.43664 0.4822,1.27013 0.47983,1.85221 -0.002,0.58209 -0.2972,2.18943 -0.65517,3.57188 -0.35797,1.38245 -0.65324,2.73182 -0.65615,2.99861 -0.003,0.26679 0.11265,0.44538 0.25681,0.39687 z M 105.4994,78.773337 c 0.15935,0.009 0.46753,-0.19256 0.68484,-0.44722 0.21732,-0.25466 2.25983,-3.5654 4.53893,-7.3572 2.27909,-3.7918 4.1438,-7.03211 4.1438,-7.20069 0,-0.16858 -0.37809,-0.73713 -0.84019,-1.26344 -0.46211,-0.52631 -1.50391,-1.40737 -2.31511,-1.9579 -0.8112,-0.55054 -2.44154,-1.48675 -3.62298,-2.08047 -1.18143,-0.59373 -2.87432,-1.32416 -3.76196,-1.62318 -0.88765,-0.29903 -2.13498,-0.54369 -2.77187,-0.54369 -0.76993,0 -1.29562,0.15516 -1.568773,0.46303 -0.22595,0.25466 -2.22516,3.72797 -4.44269,7.71847 -2.87631,5.17597 -3.9636,7.36369 -3.79365,7.63312 0.13103,0.20772 3.21312,1.78746 6.84908,3.51052 3.635973,1.72306 6.741223,3.13995 6.900573,3.14865 z m 10.95785,87.682973 c -0.11517,0.12231 -0.29197,-1.66363 -0.39288,-3.96875 -0.10091,-2.30512 -0.27871,-5.44867 -0.39511,-6.98567 -0.15649,-2.06643 -0.36708,-3.10047 -0.80827,-3.96875 -0.32815,-0.64581 -1.53261,-2.13483 -2.67658,-3.30893 -1.14397,-1.17411 -2.07994,-2.20596 -2.07994,-2.29302 0,-0.0871 1.16086,0.24729 2.57969,0.743 1.41883,0.4957 2.79315,0.90248 3.05404,0.90395 0.2609,0.002 1.04668,-0.53267 1.74619,-1.18698 l 1.27184,-1.18966 0.47327,1.04952 c 0.26029,0.57724 0.6924,1.24784 0.96024,1.49023 0.43199,0.39095 0.74684,0.40715 2.78898,0.14354 1.26611,-0.16344 2.36894,-0.23024 2.45074,-0.14843 0.0818,0.0818 -0.0289,0.24834 -0.24594,0.3701 -0.21707,0.12176 -1.3993,0.97603 -2.62718,1.89838 -1.37574,1.03342 -2.41892,2.04323 -2.71824,2.63128 -0.26716,0.52485 -1.09002,3.79907 -1.82859,7.27604 -0.73857,3.47698 -1.43709,6.42184 -1.55226,6.54415 z"
       style="fill:#000d5d;stroke-width:0.264583" />
  </g>
</svg>
